{"title":"Wallace And Gromit The Complete Collection Mkv 1080p Ac3 Multich","uid":8784516,"size":23365634578,"categoryP":"video","categoryS":"hd___movies","magnet":"?xt=urn:btih:19fcd98c063193c97762c24d8f7a9ae881585f84&amp;dn=Wallace+And+Gromit+The+Complete+Collection+Mkv+1080p+Ac3+Multich&amp;tr=udp%3A%2F%2Ftracker.openbittorrent.com%3A80&amp;tr=udp%3A%2F%2Fopen.demonii.com%3A1337&amp;tr=udp%3A%2F%2Ftracker.coppersurfer.tk%3A6969&amp;tr=udp%3A%2F%2Fexodus.desync.com%3A6969","seeders":8,"leechers":6,"uploader":"AN0NYMOUS142857","files":4,"time":1375797422,"description":"Wallace And Gromit The Complete Collection Mkv 1080p Ac3 Multichannel Stereo BD-Rip (MW68)\n\n &lt;a href=&quot;\nhttp://www.imdb.com/news/ni1120169/&quot; rel=&quot;nofollow&quot; target=&quot;_NEW&quot;&gt;\nhttp://www.imdb.com/news/ni1120169/&lt;/a&gt;\n\nWallace And Gromit The Complete Collection Mkv 1080p Ac3 Multichannel Stereo\n\n1.Wallace And Gromit A Grand Day Out Mkv 1080p Ac3 Multichannel\n\nFormat : Matroska\nFormat version : Version 2\nFile size : 4.55 GiB\nDuration : 23mn 57s\nOverall bit rate mode : Variable\nOverall bit rate : 27.2 Mbps\nMovie name : WALLACE AND GROMIT - THE COMPLETE COLLECTION\nEncoded date : UTC 2013-07-14 13:57:36\nWriting application : MakeMKV v1.8.3 win(x64-release)\nWriting library : libmakemkv v1.8.3 (1.2.0/1.1.0) win(x64-release)\n\nVIDEO INFO\n\nFormat : AVC\nFormat/Info : Advanced Video Codec\nFormat profile : &lt;a class=&quot;__cf_email__&quot; href=&quot;/cdn-cgi/l/email-protection&quot; data-cfemail=&quot;1e567779765e522a302f&quot;&gt;[email&amp;#160;protected]&lt;/a&gt;&lt;script cf-hash='f9e31' type=&quot;text/javascript&quot;&gt;\n/* &lt;![CDATA[ */!function(){try{var t=&quot;currentScript&quot;in document?document.currentScript:function(){for(var t=document.getElementsByTagName(&quot;script&quot;),e=t.length;e--;)if(t[e].getAttribute(&quot;cf-hash&quot;))return t[e]}();if(t&amp;&amp;t.previousSibling){var e,r,n,i,c=t.previousSibling,a=c.getAttribute(&quot;data-cfemail&quot;);if(a){for(e=&quot;&quot;,r=parseInt(a.substr(0,2),16),n=2;a.length-n;n+=2)i=parseInt(a.substr(n,2),16)^r,e+=String.fromCharCode(i);e=document.createTextNode(e),c.parentNode.replaceChild(e,c)}}}catch(u){}}();/* ]]&gt; */&lt;/script&gt;\nFormat settings, CABAC : Yes\nFormat settings, ReFrames : 4 frames\nCodec ID : V_MPEG4/ISO/AVC\nDuration : 23mn 57s\nBit rate mode : Variable\nMaximum bit rate : 37.0 Mbps\nWidth : 1 920 pixels\nHeight : 1 080 pixels\nDisplay aspect ratio : 16:9\nFrame rate mode : Constant\nFrame rate : 24.000 fps\nStandard : NTSC\nColor space : YUV\nChroma subsampling : 4:2:0\nBit depth : 8 bits\nScan type : Progressive\nLanguage : English\nDefault : No\nForced : No\n\nAUDIO INFO\n\nAudio #1\nID : 2\nFormat : AC-3\nFormat/Info : Audio Coding 3\nMode extension : CM (complete main)\nFormat settings, Endianness : Big\nCodec ID : A_AC3\nDuration : 23mn 57s\nBit rate mode : Constant\nBit rate : 640 Kbps\nChannel(s) : 6 channels\nChannel positions : Front: L C R, Side: L R, LFE\nSampling rate : 48.0 KHz\nBit depth : 16 bits\nCompression mode : Lossy\nStream size : 110 MiB (2%)\nTitle : 3/2+1\nLanguage : English\nDefault : Yes\nForced : No\n\nAudio #2\nID : 3\nFormat : PCM\nCodec ID : A_PCM/INT/LIT\nDuration : 23mn 57s\nBit rate mode : Constant\nChannel(s) : 2 channels\nSampling rate : 48.0 KHz\nBit depth : 16 bits\nTitle : 2/0\nLanguage : English\nDefault : No\nForced : No\n\nText\nID : 4\nFormat : PGS\nCodec ID : S_HDMV/PGS\nCodec ID/Info : The same subtitle format used on BDs/HD-DVDs\nLanguage : English\nDefault : Yes\nForced : No\n\n2.Wallace And Gromit The Wrong Trousers Mkv 1080p Ac3 Multichannel\n\nFormat : Matroska\nFormat version : Version 2\nFile size : 5.76 GiB\nDuration : 30mn 20s\nOverall bit rate mode : Variable\nOverall bit rate : 27.2 Mbps\nMovie name : WALLACE AND GROMIT - THE COMPLETE COLLECTION\nEncoded date : UTC 2013-07-14 14:22:22\nWriting library : libmakemkv v1.8.3 (1.2.0/1.1.0) win(x64-release)\n\nVIDEO INFO\n\nFormat : AVC\nFormat/Info : Advanced Video Codec\nFormat profile : &lt;a class=&quot;__cf_email__&quot; href=&quot;/cdn-cgi/l/email-protection&quot; data-cfemail=&quot;bff7d6d8d7fff38b918e&quot;&gt;[email&amp;#160;protected]&lt;/a&gt;&lt;script cf-hash='f9e31' type=&quot;text/javascript&quot;&gt;\n/* &lt;![CDATA[ */!function(){try{var t=&quot;currentScript&quot;in document?document.currentScript:function(){for(var t=document.getElementsByTagName(&quot;script&quot;),e=t.length;e--;)if(t[e].getAttribute(&quot;cf-hash&quot;))return t[e]}();if(t&amp;&amp;t.previousSibling){var e,r,n,i,c=t.previousSibling,a=c.getAttribute(&quot;data-cfemail&quot;);if(a){for(e=&quot;&quot;,r=parseInt(a.substr(0,2),16),n=2;a.length-n;n+=2)i=parseInt(a.substr(n,2),16)^r,e+=String.fromCharCode(i);e=document.createTextNode(e),c.parentNode.replaceChild(e,c)}}}catch(u){}}();/* ]]&gt; */&lt;/script&gt;\nFormat settings, CABAC : Yes\nFormat settings, ReFrames : 4 frames\nCodec ID : V_MPEG4/ISO/AVC\nDuration : 30mn 20s\nBit rate mode : Variable\nMaximum bit rate : 37.0 Mbps\nWidth : 1 920 pixels\nHeight : 1 080 pixels\nDisplay aspect ratio : 16:9\nFrame rate mode : Constant\nFrame rate : 24.000 fps\nStandard : NTSC\nColor space : YUV\nChroma subsampling : 4:2:0\nBit depth : 8 bits\nScan type : Progressive\nLanguage : English\nDefault : No\nForced : No\n\nAUDIO INFO\n\nAudio #1\nID : 2\nFormat : AC-3\nFormat/Info : Audio Coding 3\nMode extension : CM (complete main)\nFormat settings, Endianness : Big\nCodec ID : A_AC3\nDuration : 30mn 20s\nBit rate mode : Constant\nBit rate : 640 Kbps\nChannel(s) : 6 channels\nChannel positions : Front: L C R, Side: L R, LFE\nSampling rate : 48.0 KHz\nBit depth : 16 bits\nCompression mode : Lossy\nStream size : 139 MiB (2%)\nTitle : 3/2+1\nLanguage : English\nDefault : Yes\nForced : No\n\nAudio #2\nID : 3\nFormat : PCM\nCodec ID : A_PCM/INT/LIT\nDuration : 30mn 20s\nBit rate mode : Constant\nChannel(s) : 2 channels\nSampling rate : 48.0 KHz\nBit depth : 16 bits\nTitle : 2/0\nLanguage : English\nDefault : No\nForced : No\n\n3.Wallace And Gromit A Close Shave Mkv 1080p Ac3 Multichannel\n\nFormat : Matroska\nFormat version : Version 2\nFile size : 6.14 GiB\nDuration : 31mn 27s\nOverall bit rate mode : Variable\nOverall bit rate : 27.9 Mbps\nMovie name : WALLACE AND GROMIT - THE COMPLETE COLLECTION\nEncoded date : UTC 2013-07-14 14:09:11\nWriting library : libmakemkv v1.8.3 (1.2.0/1.1.0) win(x64-release)\n\nVIDEO INFO\n\nFormat : AVC\nFormat/Info : Advanced Video Codec\nFormat profile : &lt;a class=&quot;__cf_email__&quot; href=&quot;/cdn-cgi/l/email-protection&quot; data-cfemail=&quot;1159787679515d253f20&quot;&gt;[email&amp;#160;protected]&lt;/a&gt;&lt;script cf-hash='f9e31' type=&quot;text/javascript&quot;&gt;\n/* &lt;![CDATA[ */!function(){try{var t=&quot;currentScript&quot;in document?document.currentScript:function(){for(var t=document.getElementsByTagName(&quot;script&quot;),e=t.length;e--;)if(t[e].getAttribute(&quot;cf-hash&quot;))return t[e]}();if(t&amp;&amp;t.previousSibling){var e,r,n,i,c=t.previousSibling,a=c.getAttribute(&quot;data-cfemail&quot;);if(a){for(e=&quot;&quot;,r=parseInt(a.substr(0,2),16),n=2;a.length-n;n+=2)i=parseInt(a.substr(n,2),16)^r,e+=String.fromCharCode(i);e=document.createTextNode(e),c.parentNode.replaceChild(e,c)}}}catch(u){}}();/* ]]&gt; */&lt;/script&gt;\nFormat settings, CABAC : Yes\nFormat settings, ReFrames : 4 frames\nCodec ID : V_MPEG4/ISO/AVC\nDuration : 31mn 27s\nBit rate mode : Variable\nMaximum bit rate : 37.0 Mbps\nWidth : 1 920 pixels\nHeight : 1 080 pixels\nDisplay aspect ratio : 16:9\nFrame rate mode : Constant\nFrame rate : 24.000 fps\nStandard : NTSC\nColor space : YUV\nChroma subsampling : 4:2:0\nBit depth : 8 bits\nScan type : Progressive\nLanguage : English\nDefault : No\nForced : No\n\nAUDIO INFO\n\nAudio #1\nID : 2\nFormat : AC-3\nFormat/Info : Audio Coding 3\nMode extension : CM (complete main)\nFormat settings, Endianness : Big\nCodec ID : A_AC3\nDuration : 31mn 27s\nBit rate mode : Constant\nBit rate : 640 Kbps\nChannel(s) : 6 channels\nChannel positions : Front: L C R, Side: L R, LFE\nSampling rate : 48.0 KHz\nBit depth : 16 bits\nCompression mode : Lossy\nStream size : 144 MiB (2%)\nTitle : 3/2+1\nLanguage : English\nDefault : Yes\nForced : No\n\nAudio #2\nID : 3\nFormat : PCM\nCodec ID : A_PCM/INT/LIT\nDuration : 31mn 27s\nBit rate mode : Constant\nChannel(s) : 2 channels\nSampling rate : 48.0 KHz\nBit depth : 24 bits\nTitle : 2/0\nLanguage : English\nDefault : No\nForced : No\n\n4.Wallace And Gromit A Matter Of Loaf Or Death Mkv 1080p Ac3 Multichannel\n\nFormat : Matroska\nFormat version : Version 2\nFile size : 5.31 GiB\nDuration : 29mn 14s\nOverall bit rate mode : Variable\nOverall bit rate : 26.0 Mbps\nMovie name : WALLACE AND GROMIT - THE COMPLETE COLLECTION\nEncoded date : UTC 2013-07-14 14:40:24\nWriting library : libmakemkv v1.8.3 (1.2.0/1.1.0) win(x64-release)\n\nVIDEO INFO\n\nFormat : AVC\nFormat/Info : Advanced Video Codec\nFormat profile : &lt;a class=&quot;__cf_email__&quot; href=&quot;/cdn-cgi/l/email-protection&quot; data-cfemail=&quot;7d35141a153d3149534c&quot;&gt;[email&amp;#160;protected]&lt;/a&gt;&lt;script cf-hash='f9e31' type=&quot;text/javascript&quot;&gt;\n/* &lt;![CDATA[ */!function(){try{var t=&quot;currentScript&quot;in document?document.currentScript:function(){for(var t=document.getElementsByTagName(&quot;script&quot;),e=t.length;e--;)if(t[e].getAttribute(&quot;cf-hash&quot;))return t[e]}();if(t&amp;&amp;t.previousSibling){var e,r,n,i,c=t.previousSibling,a=c.getAttribute(&quot;data-cfemail&quot;);if(a){for(e=&quot;&quot;,r=parseInt(a.substr(0,2),16),n=2;a.length-n;n+=2)i=parseInt(a.substr(n,2),16)^r,e+=String.fromCharCode(i);e=document.createTextNode(e),c.parentNode.replaceChild(e,c)}}}catch(u){}}();/* ]]&gt; */&lt;/script&gt;\nFormat settings, CABAC : Yes\nFormat settings, ReFrames : 4 frames\nCodec ID : V_MPEG4/ISO/AVC\nDuration : 29mn 14s\nBit rate mode : Variable\nBit rate : 24.4 Mbps\nMaximum bit rate : 37.0 Mbps\nWidth : 1 920 pixels\nHeight : 1 080 pixels\nDisplay aspect ratio : 16:9\nFrame rate mode : Constant\nFrame rate : 25.000 fps\nStandard : PAL\nColor space : YUV\nChroma subsampling : 4:2:0\nBit depth : 8 bits\nScan type : MBAFF\nBits/(Pixel*Frame) : 0.471\nStream size : 4.98 GiB (94%)\nLanguage : English\nDefault : No\nForced : No\n\nAUDIO INFO\n\nAudio #1\nID : 2\nFormat : AC-3\nFormat/Info : Audio Coding 3\nMode extension : CM (complete main)\nFormat settings, Endianness : Big\nCodec ID : A_AC3\nDuration : 29mn 14s\nBit rate mode : Constant\nBit rate : 640 Kbps\nChannel(s) : 6 channels\nChannel positions : Front: L C R, Side: L R, LFE\nSampling rate : 48.0 KHz\nBit depth : 16 bits\nCompression mode : Lossy\nStream size : 134 MiB (2%)\nTitle : 3/2+1\nLanguage : English\nDefault : Yes\nForced : No\n\nAudio #2\nID : 3\nFormat : AC-3\nFormat/Info : Audio Coding 3\nMode extension : CM (complete main)\nFormat settings, Endianness : Big\nCodec ID : A_AC3\nDuration : 29mn 14s\nBit rate mode : Constant\nBit rate : 448 Kbps\nChannel(s) : 6 channels\nChannel positions : Front: L C R, Side: L R, LFE\nSampling rate : 48.0 KHz\nBit depth : 16 bits\nCompression mode : Lossy\nStream size : 93.7 MiB (2%)\nTitle : 3/2+1\nLanguage : English\nDefault : No\nForced : No ","torrent":{"xt":"urn:btih:19fcd98c063193c97762c24d8f7a9ae881585f84","amp;dn":"Wallace+And+Gromit+The+Complete+Collection+Mkv+1080p+Ac3+Multich","amp;tr":["udp%3A%2F%2Ftracker.openbittorrent.com%3A80","udp%3A%2F%2Fopen.demonii.com%3A1337","udp%3A%2F%2Ftracker.coppersurfer.tk%3A6969","udp%3A%2F%2Fexodus.desync.com%3A6969"],"infoHash":"19fcd98c063193c97762c24d8f7a9ae881585f84","infoHashBuffer":{"type":"Buffer","data":[25,252,217,140,6,49,147,201,119,98,194,77,143,122,154,232,129,88,95,132]},"announce":[],"urlList":[]}}